<svg xmlns="http://www.w3.org/2000/svg" width="42" height="44" viewBox="0 0 42 44">
    <g fill="none" fill-rule="evenodd">
        <g fill="#FFF" fill-rule="nonzero">
            <g>
                <g>
                    <path d="M40.241 1.782c-1.12-1.11-2.61-1.74-4.2-1.779C36.017.001 35.995 0 35.972 0H6.115C2.743 0 0 2.68 0 5.975c0 3.295 2.743 5.976 6.115 5.976 1.05 0 2.04-.262 2.904-.72.508.46 1.122.783 1.788.945v16.19c0 .35.29.634.649.634.358 0 .649-.284.649-.634v-16.07h17.79v2.956c0 .35.29.634.65.634.358 0 .648-.284.648-.634v-3.038c.703-.14 1.358-.459 1.897-.926.839.423 1.789.663 2.795.663C39.257 11.95 42 9.27 42 5.975c0-1.579-.624-3.068-1.759-4.193zm-9.868 9.246h-18.57c-.064 0-.127-.004-.19-.008l-.071-.005c-.517-.047-1.005-.23-1.416-.53.95-.806 1.616-1.871 1.92-3.05l.013-.06c.017-.069.034-.139.049-.21.038-.182.067-.367.087-.555h17.61c.166 1.543.933 2.947 2.148 3.94-.461.309-1.01.478-1.58.478zm5.512-.346c-2.486 0-4.538-1.85-4.79-4.216l-.002-.015c-.007-.071-.012-.143-.016-.215l-.002-.043c-.004-.072-.006-.145-.006-.218 0-.35-.29-.634-.65-.634H11.582c-.359 0-.65.284-.65.634 0 .091-.003.182-.008.273l-.007.081c-.005.064-.01.128-.018.191l-.012.09c-.008.062-.018.123-.03.184-.004.029-.009.057-.015.086-.014.069-.03.138-.046.206l-.013.056c-.022.083-.046.165-.073.246-.01.033-.022.066-.034.099-.016.048-.033.095-.051.143l-.05.123c-.015.036-.03.071-.047.107-.02.046-.042.093-.064.138l-.033.066c-.094.185-.2.364-.317.534l-.007.01c-.042.06-.085.12-.13.178l-.007.009c-.18.234-.381.45-.602.648l-.028.026-.151.128-.042.032c-.828.658-1.883 1.053-3.03 1.053-2.657 0-4.817-2.111-4.817-4.707 0-2.595 2.16-4.706 4.816-4.706H35.92l.043.002c2.613.04 4.74 2.15 4.74 4.704 0 2.596-2.162 4.707-4.818 4.707z" transform="translate(-250 -29) translate(250 21) translate(0 8)"/>
                    <path d="M6 3C4.346 3 3 4.346 3 6s1.346 3 3 3 3-1.346 3-3-1.346-3-3-3zm0 4.782c-.983 0-1.782-.8-1.782-1.782 0-.983.8-1.782 1.782-1.782.983 0 1.782.8 1.782 1.782 0 .983-.8 1.782-1.782 1.782zM36 3c-1.654 0-3 1.346-3 3s1.346 3 3 3 3-1.346 3-3-1.346-3-3-3zm0 4.782c-.983 0-1.782-.8-1.782-1.782 0-.983.8-1.782 1.782-1.782.983 0 1.782.8 1.782 1.782 0 .983-.8 1.782-1.782 1.782zM35.959 38.759h-.988v-1.736c0-1.212-.982-2.198-2.189-2.198h-1.698v-16.18c0-.356-.287-.645-.642-.645-.355 0-.642.289-.642.645v16.18H12.2v-2.868c0-.357-.288-.646-.642-.646-.355 0-.642.29-.642.646v2.868H9.218c-1.207 0-2.189.986-2.189 2.198v1.736h-.988C4.364 38.759 3 40.129 3 41.814v1.54c0 .357.288.646.642.646h34.716c.355 0 .642-.289.642-.645v-1.54c0-1.685-1.364-3.056-3.041-3.056zM8.314 37.023c0-.5.405-.908.903-.908h23.566c.498 0 .903.407.903.908v1.736H8.314v-1.736zm-4.03 5.687v-.896c0-.973.788-1.765 1.757-1.765h29.918c.969 0 1.757.792 1.757 1.765v.896H4.284z" transform="translate(-250 -29) translate(250 21) translate(0 8)"/>
                    <path d="M15.5 14c-.827 0-1.5.867-1.5 1.932v16.136c0 1.065.673 1.932 1.5 1.932s1.5-.867 1.5-1.932V15.932C17 14.867 16.327 14 15.5 14zm.468 18.068c0 .332-.21.603-.468.603s-.468-.27-.468-.603V15.932c0-.332.21-.603.468-.603s.468.27.468.603v16.136zM21.5 14c-.827 0-1.5.867-1.5 1.932v16.136c0 1.065.673 1.932 1.5 1.932s1.5-.867 1.5-1.932V15.932C23 14.867 22.327 14 21.5 14zm.468 18.068c0 .332-.21.603-.468.603s-.468-.27-.468-.603V15.932c0-.332.21-.603.468-.603s.468.27.468.603v16.136zM26.5 14c-.827 0-1.5.867-1.5 1.932v16.136c0 1.065.673 1.932 1.5 1.932s1.5-.867 1.5-1.932V15.932C28 14.867 27.327 14 26.5 14zm.468 18.068c0 .332-.21.603-.468.603s-.468-.27-.468-.603V15.932c0-.332.21-.603.468-.603s.468.27.468.603v16.136z" transform="translate(-250 -29) translate(250 21) translate(0 8)"/>
                </g>
            </g>
        </g>
    </g>
</svg>
