<svg xmlns="http://www.w3.org/2000/svg" width="12" height="12" viewBox="0 0 12 12">
    <g fill="none" fill-rule="evenodd">
        <g fill="#F91717" fill-rule="nonzero">
            <g>
                <g>
                    <path d="M6.663 6l5.2-5.2c.183-.183.183-.48 0-.663-.183-.183-.48-.183-.663 0L6 5.337.8.137C.617-.046.32-.046.137.137-.046.32-.046.617.137.8l5.2 5.2-5.2 5.2c-.183.183-.183.48 0 .663.092.091.212.137.332.137.12 0 .24-.046.331-.137l5.2-5.2 5.2 5.2c.091.091.211.137.331.137.12 0 .24-.046.332-.137.183-.183.183-.48 0-.663L6.663 6z" transform="translate(-1167 -762) translate(250 762) translate(917)"/>
                </g>
            </g>
        </g>
    </g>
</svg>
