<svg xmlns="http://www.w3.org/2000/svg" width="20" height="20" viewBox="0 0 20 20">
    <g fill="none" fill-rule="evenodd">
        <g fill="#FFF" fill-rule="nonzero">
            <g>
                <g>
                    <g>
                        <path d="M11.758 10c0 .97-.787 1.758-1.758 1.758-.97 0-1.758-.787-1.758-1.758 0-.97.787-1.758 1.758-1.758.97 0 1.758.787 1.758 1.758z" transform="translate(-709 -42) translate(250 21) translate(399 21) translate(60)"/>
                        <path d="M12.969 4.688H7.03c-1.292 0-2.343 1.05-2.343 2.343v5.938c0 1.292 1.05 2.344 2.343 2.344h5.938c1.292 0 2.344-1.052 2.344-2.344V7.03c0-1.292-1.052-2.343-2.344-2.343zM10 12.93c-1.615 0-2.93-1.315-2.93-2.93 0-1.615 1.315-2.93 2.93-2.93 1.615 0 2.93 1.315 2.93 2.93 0 1.615-1.315 2.93-2.93 2.93zm3.36-5.703c-.324 0-.587-.263-.587-.586 0-.324.263-.586.586-.586.324 0 .586.262.586.586 0 .323-.262.586-.586.586z" transform="translate(-709 -42) translate(250 21) translate(399 21) translate(60)"/>
                        <path d="M14.727 0H5.273C2.366 0 0 2.366 0 5.273v9.454C0 17.634 2.366 20 5.273 20h9.454C17.634 20 20 17.634 20 14.727V5.273C20 2.366 17.634 0 14.727 0zm1.757 12.969c0 1.938-1.577 3.515-3.515 3.515H7.03c-1.938 0-3.515-1.577-3.515-3.515V7.03c0-1.938 1.577-3.515 3.515-3.515h5.938c1.938 0 3.515 1.577 3.515 3.515v5.938z" transform="translate(-709 -42) translate(250 21) translate(399 21) translate(60)"/>
                    </g>
                </g>
            </g>
        </g>
    </g>
</svg>
