<svg xmlns="http://www.w3.org/2000/svg" viewBox="0 0 448.32 809.11"><defs><style>.cls-1,.cls-2{fill:none;stroke:#fff;stroke-width:4.5px;}.cls-1{stroke-linecap:round;stroke-linejoin:round;}.cls-2{stroke-miterlimit:10;}</style></defs><title>lev</title><g id="Слой_57" data-name="Слой 57"><rect class="cls-1" x="2.25" y="603.75" width="399.56" height="20.73" rx="6.67" ry="6.67"/><path class="cls-1" d="M485.24,756.84H661.76a29.61,29.61,0,0,1,0-24.74h-353a29.61,29.61,0,0,1,0,24.74Z" transform="translate(-283.21 -107.62)"/><rect class="cls-1" x="2.25" y="649.22" width="399.56" height="20.73" rx="6.67" ry="6.67"/><rect class="cls-1" x="2.25" y="786.14" width="399.56" height="20.73" rx="6.67" ry="6.67"/><path class="cls-1" d="M485.24,806.32H674.35a79.81,79.81,0,0,0,0,87.44H296.13a79.81,79.81,0,0,0,0-87.44Z" transform="translate(-283.21 -107.62)"/><rect class="cls-1" x="25.52" y="669.95" width="18.58" height="28.76"/><rect class="cls-1" x="44.1" y="669.95" width="18.58" height="28.76"/><rect class="cls-1" x="62.68" y="669.95" width="18.58" height="28.76"/><rect class="cls-1" x="81.26" y="669.95" width="18.58" height="28.76"/><rect class="cls-1" x="99.84" y="669.95" width="18.58" height="28.76"/><rect class="cls-1" x="118.42" y="669.95" width="18.58" height="28.76"/><rect class="cls-1" x="137" y="669.95" width="18.58" height="28.76"/><rect class="cls-1" x="155.58" y="669.95" width="18.58" height="28.76"/><rect class="cls-1" x="174.16" y="669.95" width="18.58" height="28.76"/><rect class="cls-1" x="192.74" y="669.95" width="18.58" height="28.76"/><rect class="cls-1" x="211.32" y="669.95" width="18.58" height="28.76"/><rect class="cls-1" x="229.9" y="669.95" width="18.58" height="28.76"/><rect class="cls-1" x="248.48" y="669.95" width="18.58" height="28.76"/><rect class="cls-1" x="267.06" y="669.95" width="18.58" height="28.76"/><rect class="cls-1" x="285.64" y="669.95" width="18.58" height="28.76"/><rect class="cls-1" x="304.22" y="669.95" width="18.58" height="28.76"/><rect class="cls-1" x="322.8" y="669.95" width="18.58" height="28.76"/><rect class="cls-1" x="341.38" y="669.95" width="18.58" height="28.76"/><rect class="cls-1" x="359.96" y="669.95" width="18.58" height="28.76"/></g><g id="Слой_16_копия3_" data-name="Слой 16 (копия3)"><g id="Слой_6_копия4_" data-name="Слой 6 (копия4)"><path class="cls-1" d="M443.49,109.94l187,185.14c.16,3.93-1.63,8.94-5,13.9L454.44,135.6C442.07,123.35,443.49,109.94,443.49,109.94Z" transform="translate(-283.21 -107.62)"/><path class="cls-1" d="M644.39,289.92c-4.92,3.43-9.92,5.28-13.85,5.16l-187-185.14s13.4-1.56,25.77,10.69Z" transform="translate(-283.21 -107.62)"/><path class="cls-1" d="M670.84,262.68c-.63,9.68-11.61,27.28-28.36,44.21S608.24,335,598.56,335.71l0-10.43c5.64,1.27,14.46-2.6,21.89-10.11a44.28,44.28,0,0,0,5.13-6.19c3.38-5,5.17-10,5-13.9,3.93.12,8.93-1.73,13.85-5.16a43.94,43.94,0,0,0,6.14-5.19c7.43-7.51,11.21-16.37,9.88-22Z" transform="translate(-283.21 -107.62)"/><polyline class="cls-1" points="398.62 257.29 402.09 260.73 413.21 260.67 417.11 256.73 421.01 252.79 420.96 241.67 417.14 237.89 398.62 257.29"/></g><g id="Слой_40_копия_" data-name="Слой 40 (копия)"><path class="cls-2" d="M453.77,254.25l-20.18,7.9a5.38,5.38,0,0,1-7-3l-1.29-3.28a5.4,5.4,0,0,1,3.05-7l28.72-11.24" transform="translate(-283.21 -107.62)"/><path class="cls-2" d="M452.71,239.31l27-10.55a5.38,5.38,0,0,1,7,3.05l1.29,3.28a5.39,5.39,0,0,1-3.05,7L477.52,245" transform="translate(-283.21 -107.62)"/><path class="cls-1" d="M481.53,228a33,33,0,0,1,3.81-16.93c5-9.72-7.64-27.62-24.79-21.09-10.9,4.15-13.86,10.74-13.86,10.74" transform="translate(-283.21 -107.62)"/><path class="cls-1" d="M426.77,249.47a33,33,0,0,0-14.29-9.84c-10.24-3.76-13.14-25.46,3.89-32.32,10.81-4.35,17.45-1.52,17.45-1.52" transform="translate(-283.21 -107.62)"/><path class="cls-2" d="M454,238.8" transform="translate(-283.21 -107.62)"/><path class="cls-1" d="M446.69,241.67c6.66-2.6-.63-12.36-.63-12.36s-9.06-14.73-11.67-21.38,4-9.07,4-9.07,6.48-2.7,9.09,3.95,5.95,23.62,5.95,23.62,1.27,12.11,7.93,9.5" transform="translate(-283.21 -107.62)"/><path class="cls-2" d="M449.09,240.73" transform="translate(-283.21 -107.62)"/><line class="cls-1" x1="155.17" y1="91.24" x2="148.78" y2="74.93"/><line class="cls-1" x1="145.57" y1="85.05" x2="158.01" y2="80.18"/></g><g id="Слой_18_копия4_" data-name="Слой 18 (копия4)"><path class="cls-1" d="M681.84,364.92a42.48,42.48,0,0,1-8,5.16c-16.31,8.35-31.22,19.05-32.29,28.3a25.68,25.68,0,0,0,3.87,16.29s-7.14,3.86-12.26-5.1a24.58,24.58,0,0,0,1.35,11.67" transform="translate(-283.21 -107.62)"/><path class="cls-1" d="M602.6,370.69c9.2-7.76,18-16.16,24.68-24.53" transform="translate(-283.21 -107.62)"/><g id="Слой_17_копия4_" data-name="Слой 17 (копия4)"><path class="cls-1" d="M671,308.72h0c-.11.29-.22.57-.35.87a1,1,0,0,0,0,.1q-.27.62-.57,1.26a80.71,80.71,0,0,1-4.88,8.59c-2.87-2.83-7.51-4.84-11.1-6.59a17.94,17.94,0,0,0-11.34-1.56c2.45-4.12,5.79-8.78,9.13-13.44,4-5.56,8.25-5.77,11.16-4.93a10.26,10.26,0,0,1,4.82,3.16c.68.78,1.7,2,3.19,3.83C672.68,302.06,672.42,305.08,671,308.72Z" transform="translate(-283.21 -107.62)"/><path class="cls-1" d="M666.63,359.17A22.16,22.16,0,0,0,685,354.64s-1.07-6.32-9-9.86C676.06,344.78,677.9,353.94,666.63,359.17Z" transform="translate(-283.21 -107.62)"/><path class="cls-1" d="M691.9,323.21a12.27,12.27,0,0,1-1.72,2.68c-3.94,4.73-8.36,12.13-13.79,15.79v0a6.36,6.36,0,0,0-.34,3c7.9,3.54,9,10,9,10,2.22.36,4.5-.88,8.6-3.48,6.88-4.36,13.93-12.68,12.73-18.61s-6.78-12-14.45-9.34" transform="translate(-283.21 -107.62)"/><path class="cls-1" d="M678.52,338.74s-11.1-6-11.19-16.09l-.06-.17a9.29,9.29,0,0,0-2.1-2.93,80.71,80.71,0,0,0,4.88-8.59q.3-.65.57-1.26a1,1,0,0,1,0-.1c.13-.3.24-.58.35-.87h0c.34-.23,7.63-5.08,14.94-1.58,6.41,3.07,9.8,12.06,4.22,18.75-3.17,3.81-6.66,9.36-10.74,13.29l-.92-.44" transform="translate(-283.21 -107.62)"/></g><path class="cls-1" d="M627.27,346.17s.84-11.54,1-16.16,1.42-12.26,7.79-16a21.19,21.19,0,0,1,6.72-2.6A17.94,17.94,0,0,1,654.07,313c3.59,1.75,8.23,3.76,11.1,6.59a9.29,9.29,0,0,1,2.1,2.93l.06.17s-6.93,2.56-9.4,9a12.91,12.91,0,0,0-.77,3.17,7.29,7.29,0,0,1-.79.05,4,4,0,0,1-1.24-.18,56.3,56.3,0,0,1-7.77-3.36c1,.69,20,14.06-.38,28.9" transform="translate(-283.21 -107.62)"/><path class="cls-1" d="M678.52,338.74a16.29,16.29,0,0,1-7.21,2c-5.53.2-10.06-2.58-12.41-4.39l-.39-.31a18,18,0,0,1-1.35-1.2,12.91,12.91,0,0,1,.77-3.17c2.47-6.46,9.4-9,9.4-9C667.42,332.77,678.52,338.74,678.52,338.74Z" transform="translate(-283.21 -107.62)"/></g><g id="Слой_13_копия3_" data-name="Слой 13 (копия3)"><path class="cls-1" d="M522.57,495.14c13.5,5.9,26,17,26,17,12.08,10.45,17.64,23.59,13.36,45.89,0,0-.77,5.76-10.76,19.36s-11.84,21.61-.48,33.29c1.38,1.42,2.89,2.93,4.47,4.5,16.31,16.19,28.79,30.31,34.29,52.81,3.53,14.44,17.7,19,25.87,21,14.65,3.5,13.63,22.38,13.63,22.38h-74.5c6.49-27.11-1.81-44.52-1.81-44.52-5.33-14-19.63-18.68-19.63-18.68-4.52,16.59-22.31,12.49-22.31,12.49,8.81-7.24,7.34-16.45,7.34-16.45-5.51,11.3-18.61,6.4-18.61,6.4,8.26-4.72,8.12-11.72,8.12-11.72-7.6,9.53-17.19,4.55-17.19,4.55s3.74-1.15,5.51-8.12a17.21,17.21,0,0,1,6.93-9.85c-24-5-28-26.14-24.37-28.7s5.61-2.85,10.57-3.14S500.91,587,489,572c-8.7-10.91-23.21-13.36-30.42-13.88h0a48.47,48.47,0,0,0-4,19c1.9,54.66-63.67,59.86-63.67,59.86-10.71,33.56-5.08,40.36-.64,46.47,5.33,7.33,14.7,3.41,23.65,6.66,15.57,5.67,15.57,21.22,15.57,21.22s-3.5-8.54-23.5-7.87" transform="translate(-283.21 -107.62)"/><path class="cls-1" d="M451.8,422.22c-1.93,38.48-38.57,77.06-38.57,77.06-29.18,30.38-37.09,56.67-37.67,75.45-.5,0-1,0-1.51,0-26.61,0-42.33-11.36-42.33-30.23s12.22-25.15,23.34-25.15,20.39,7.79,15.67,17.43c-5.09,10.37-17.12,2.64-17.12,2.64,9.26,9.37,27.78,3.71,29.69-8.44,2-12.68-9.25-17.57-9.25-17.57,9.88-2.21,12-7.82,12.15-12.55.27-9.25-8-15.13-8-15.13,4,9,1.24,19.67-14.51,18.74S341.9,509,341.9,509c22.88-22.5,34.32-59.27,34.05-92.39-.32-38-17.68-52.64-18.14-64.16s10.43-14,14.79-9.43-.82,10.07-.82,10.07c10.2-3.67,8.39-22.05-8.66-21.81C345,331.51,344,349,344,349c-11.51-7.17-23.86-1.08-33.11-5.71s-7-17.85,1.42-20.28c7.53-2.18,12.91,4,12.91,4s-1.35-9.81-12.15-9.28c-12,.6-19.58,11.63-18.31,23.42,1.38,12.85,13.59,20.68,28,20.68,0,0-22,9.25-22,30.48s22.68,22.31,20.68,36.82a10.6,10.6,0,0,0,4.84-12.51S336,418.5,339.47,413a8.7,8.7,0,0,0-.19-10.15s0,10.1-13.12,6.89c-13.77-3.36-13-18.5-8.89-24.94s15.6-11.88,28.75-4.9,27.13,22,15.71,66.09c0,0-.91-10-12.34-9.95-11.7.09-14,11.74-14,11.74s1.45-6.17,9.68-6.17,14.87,16.57,1.33,38.33S329.91,499.78,327,514.05a21.1,21.1,0,0,0-8.73-15.61c-8.08-5.72-13.4-10.64-12.44-16.08a24.73,24.73,0,0,0,5.69,27.57s-7.62-.12-8.47,8.47c0,0,7.6-3.73,10.52,2.3,3.34,6.89-.6,47.28,34.71,58.89a76,76,0,0,0,27.54,4C377.1,597.23,382,605.1,382,605.1c1.28,11-9.73,14.92-16.94,16.31a12.83,12.83,0,0,0-9.2,7.11,123.62,123.62,0,0,0-5.1,12.69s-4.24-2.12-13.38-1c-6.1.75-9.75-1.12-9.75-1.12,2.07,12.36,12,13.14,12,13.14-7.74,3.72-14.14-1.78-14.14-1.78,3.9,15.9,14.27,13.53,14.27,13.53a21,21,0,0,1-18,1.1c6.08,18.2,21.59,15.47,21.59,15.47,7.31,14.94-.36,30.82-.36,30.82" transform="translate(-283.21 -107.62)"/><path class="cls-1" d="M628.94,711.37s-2.19-7.37-16.44-8.65" transform="translate(-283.21 -107.62)"/></g><g id="Слой_14_копия3_" data-name="Слой 14 (копия3)"><path class="cls-1" d="M572.55,501.73a27.1,27.1,0,0,0,14.88,15.42c8.91,3.76,10,9.61,10,9.61a24.66,24.66,0,0,0-1.09-15.33c-3.05-7-.91-12.6,2.9-13,0,0,.91,22.5,29.39,26.85,0,0-14-8.89-5.81-25,0,0,1.09,13.42,16.51,14.15,0,0,14.87,10.52,22.13,0,0,0-7.74,1.57-8.83-4.12a11.92,11.92,0,0,0,.73-10.52,29.54,29.54,0,0,1,19.95,10.89c10.1,12.45,19.53,12.45,19.53,12.45s6.59,4,4.66,13.55c0,0,11-6.53,3.87-22.86,0,0,4.95-16.32-28.18-22.25,0,0,9-2.18,21.16,1.09s19.47-4.11,18.38-8.83a17.67,17.67,0,0,1,16.57,3.3S730,472.52,710.51,471c0,0-5.72-5.26-15.15-1.9s-14.88.54-14.88.54,3.27-3.9,14.06-6.89,7.71-15.6,7.71-15.6,4.54-5.44,14.06-3.27c0,0-5.8-12.06-25.12-4.26,0,0-11.16-3-16.78,6.71s-7.89,19.86-34.92,17.32S586.16,445,586.16,445" transform="translate(-283.21 -107.62)"/><path class="cls-1" d="M567.66,530.39" transform="translate(-283.21 -107.62)"/><path class="cls-1" d="M639.31,514.43a15.19,15.19,0,0,1,13.3-4.12" transform="translate(-283.21 -107.62)"/><path class="cls-1" d="M692.82,523.13s-.42-7.49,8.53-9.31" transform="translate(-283.21 -107.62)"/><path class="cls-1" d="M710.51,471s-2.85,7.47,2.2,12.85" transform="translate(-283.21 -107.62)"/><path class="cls-1" d="M691.19,439.6s1.81,7.89,11.06,7.53" transform="translate(-283.21 -107.62)"/></g><path class="cls-1" d="M526.8,318.07a24.94,24.94,0,0,1,23.93-12.16c16.93,1.33,24.43-.84,26.72-8s-4.23-15.06-4.23-15.06,13.34,8.11,12.09,19.41c-1,8.8-7.13,13.31-17.75,11.63-10.08-1.59-10.41-2.62-20.1-2.71" transform="translate(-283.21 -107.62)"/><g id="Слой_3_копия3_" data-name="Слой 3 (копия3)"><g id="Слой_37_копия_" data-name="Слой 37 (копия)"><path class="cls-1" d="M453,252" transform="translate(-283.21 -107.62)"/><path class="cls-1" d="M453,252c-16.53,12.57-30,14.28-30,14.28s1.34,4.76,8.37,6.31c0,0-9.83,3.23-8.89,17.52,1,15.22-5.62,25.47-16.85,29.47,0,0,13.86,5.61,24.11-7,0,0-2.84,7.24-12.25,18.94-7.8,9.7-6.44,19.05-4,28.93,2.6,10.5.59,24.29.59,24.29s1.68-3.25,7.52-6.89c6.72-4.2,8.73-8.11,8.73-8.11s-7,19.59-2.38,35,8.49,25.64,8.58,37.25c0,0,12.29-6.23,15.26-19.81,0,0-.29,15.38,3.51,25.79,5.57,15.23,11.61,13.54,13.94,36.22,0,0,18.17-6.84,16.76-41.32,0,0,1.64,20.54,8.09,32s11.07,19.86,9.6,31.91a34.76,34.76,0,0,0,25.37-23.66c6.72-20.52,3.5-32.62,3.5-32.62s-.35,12.35,13.08,24.87c12.87,12,12.88,22.49,2.9,36.76,0,0,51.23-1.89,30.08-59.55,0,0,11,29.59,36.94,30,0,0-8.69-16.26-7.38-32.82s-7.2-25.25-7.2-25.25,30,25.89,50.55-3.94a32.75,32.75,0,0,1-24.87-2.12c-12.94-6.66-13.22-20.7-26.5-25.05A62.26,62.26,0,0,1,619,396.17c12.87,3.86,16.79-1.84,18.57-6.69,0,0-10.81,1.33-22.17-9.82-12.31-12.08-24.75-14.73-43-5.9h0c11.85-8.83,7-26.49,7-26.49s-8.21,12.21-26.58,10.73-32.37-25.34-32.37-25.34a18.73,18.73,0,0,1,16.43-1.22l.26.11c8.83,3.63,12.46.48,16.45-5.44s1.81-13.55-1.33-14.39-10.4-1.33-19.59,4.11-18.38,1.09-9.31-6.89,12-4.72,26-7.62S562.46,284.75,562,278s-6.53-7-10.64-9.74-6.23-4.11-12.94-5.68-3.44-6.29-7.5-8.35-9.07-1.44-16.25-2.66a29.37,29.37,0,0,1-6-1.69c-2.39-.94-6.19-2.57-11.39-5.2" transform="translate(-283.21 -107.62)"/><path class="cls-1" d="M514.64,251.55a29.37,29.37,0,0,1-6-1.69c-2.39-.94-6.19-2.57-11.39-5.2s-12.84-4-21.6-2.64" transform="translate(-283.21 -107.62)"/></g><path class="cls-1" d="M510.28,266.34a23.55,23.55,0,0,1,13.18-5.48,3,3,0,0,1,3.24,2.37,4.15,4.15,0,0,1-2.4,4.89C519.77,270.3,510.88,269,510.28,266.34Z" transform="translate(-283.21 -107.62)"/><path class="cls-1" d="M508.07,261.8a4.84,4.84,0,0,1,4.62-2.27c3.06.43,3,1.8,6.48,2.12" transform="translate(-283.21 -107.62)"/><path class="cls-1" d="M539,284.65s-2.55,3.7,1.31,8.69" transform="translate(-283.21 -107.62)"/><path class="cls-1" d="M520.49,300.35s-.33-4.16,3.45-8.59a16.1,16.1,0,0,0,3.45-13.48" transform="translate(-283.21 -107.62)"/><path class="cls-1" d="M561.48,275.54s-4-.47-5.31.68,1.59,6.53,3.81,7,2.22-.37,2.22-.37" transform="translate(-283.21 -107.62)"/><path class="cls-1" d="M485.24,402.42c2.54,12.63,11.79,14.57,29.17,15.5s25.65,8.73,25.65,8.73c-7.58-25.9-24.21-35.28-24.21-35.28C558.42,424,580.8,399,580.8,399c-30.88-1.1-34.29-20.81-34.29-20.81,42.79,5,32.93-30.93,32.93-30.93s-8.21,12.21-26.58,10.73-32.37-25.34-32.37-25.34" transform="translate(-283.21 -107.62)"/></g><circle class="cls-1" cx="238.68" cy="157.18" r="2.2"/><path class="cls-1" d="M456.83,260.65s-7.05-9.62-.82-19.6c5.34-8.56,18.8-6.82,24.3,10.36" transform="translate(-283.21 -107.62)"/><path class="cls-1" d="M461.6,241.68s9.41,1.25,8.58,12.32" transform="translate(-283.21 -107.62)"/><g id="Слой_42_копия_" data-name="Слой 42 (копия)"><path class="cls-1" d="M458.61,292.15s-5.17,16.34-15.83,21.67c0,0,19.83,5,28.5-9.17,0,0-9.34,18,11.5,18.17,0,0-.5,9.67,10.66,12.67a9.21,9.21,0,0,1,6.84-8.67s4.5,11.5,20.21,5.84" transform="translate(-283.21 -107.62)"/></g><path class="cls-1" d="M458.57,558.15s10.46-22.55,32-31.5c34.62-14.4,32-31.51,32-31.51" transform="translate(-283.21 -107.62)"/><path class="cls-1" d="M452.92,357.14s-5.35,16,8.68,22.52c0,0-.25-13.17,12.68-16.9" transform="translate(-283.21 -107.62)"/><path class="cls-1" d="M397.94,552.82s1.5-16.14,19-31.33c19.6-17,22-28.75,22-28.75" transform="translate(-283.21 -107.62)"/><path class="cls-1" d="M673.37,343.25c-11.56,9.55-20.5,7.68-20.5,7.68,8.74-5.38,5.78-14.55,5.78-14.55l.25,0c2.35,1.81,6.88,4.59,12.41,4.39A14.89,14.89,0,0,1,673.37,343.25Z" transform="translate(-283.21 -107.62)"/></g></svg>