<svg xmlns="http://www.w3.org/2000/svg" width="64" height="71" viewBox="0 0 64 71">
    <g fill="none" fill-rule="evenodd">
        <g fill="#000" fill-rule="nonzero">
            <g>
                <g>
                    <path d="M39 13c0-3.866-3.134-7-7-7s-7 3.134-7 7 3.134 7 7 7c3.864-.004 6.996-3.136 7-7zm-11.667 0c0-2.577 2.09-4.667 4.667-4.667s4.667 2.09 4.667 4.667-2.09 4.667-4.667 4.667c-2.576-.003-4.664-2.09-4.667-4.667z" transform="translate(-230 -423) translate(230 140) translate(0 283)"/>
                    <path d="M31.322 32.787c.407.284.949.284 1.356 0 2.244-1.649 4.298-3.542 6.123-5.643C42.856 22.493 45 17.59 45 12.964 45 5.804 39.18 0 32 0S19 5.804 19 12.964c0 4.626 2.144 9.529 6.2 14.18 1.824 2.101 3.878 3.994 6.122 5.643zM32 2.357c5.872.007 10.63 4.752 10.636 10.607 0 8.433-8.196 15.473-10.636 17.382-2.444-1.907-10.636-8.933-10.636-17.382C21.37 7.11 26.128 2.364 32 2.357z" transform="translate(-230 -423) translate(230 140) translate(0 283)"/>
                    <path d="M16.605 59.464L18.973 59.465 18.974 61.945 16.607 61.944z" transform="translate(-230 -423) translate(230 140) translate(0 283) rotate(-72.906 17.79 60.704)"/>
                    <path d="M21.346 60.915L23.713 60.916 23.714 63.396 21.347 63.395z" transform="translate(-230 -423) translate(230 140) translate(0 283) rotate(-72.906 22.53 62.156)"/>
                    <path d="M26.087 62.375L28.455 62.376 28.456 64.856 26.088 64.855z" transform="translate(-230 -423) translate(230 140) translate(0 283) rotate(-72.906 27.271 63.616)"/>
                    <path d="M63.163 27.44L45.386 22l-.698 2.253 14.097 4.314L32 36.763 5.215 28.567l14.096-4.314L18.614 22 .836 27.44C.34 27.593 0 28.05 0 28.567v31.825c0 .517.34.974.837 1.126l30.814 9.43c.228.07.47.07.698 0l30.814-9.43c.498-.152.837-.609.837-1.126V28.567c0-.518-.34-.975-.837-1.127zM2.37 30.163l28.445 8.704v29.358L2.37 59.521V30.163zm30.815 38.062V38.867l28.445-8.704V59.52l-28.445 8.704z" transform="translate(-230 -423) translate(230 140) translate(0 283)"/>
                    <path d="M47.36 58.818L49.84 58.819 49.841 61.187 47.361 61.186z" transform="translate(-230 -423) translate(230 140) translate(0 283) rotate(-17.094 48.6 60.002)"/>
                    <path d="M52.099 57.366L54.579 57.367 54.581 59.735 52.1 59.734z" transform="translate(-230 -423) translate(230 140) translate(0 283) rotate(-17.094 53.34 58.55)"/>
                    <path d="M56.844 55.905L59.324 55.906 59.325 58.274 56.845 58.273z" transform="translate(-230 -423) translate(230 140) translate(0 283) rotate(-17.094 58.084 57.09)"/>
                    <path d="M22.833 48c.645 0 1.167-.533 1.167-1.19v-5.955c0-.523-.334-.984-.824-1.138L11.51 36.053c-.354-.111-.739-.045-1.036.18-.298.225-.474.58-.474.958v5.954c0 .523.334.985.824 1.138l11.666 3.664c.111.035.227.053.343.053zm-1.166-2.803l-9.334-2.931v-3.463l9.334 2.931v3.463zM54 43.145v-5.954c0-.378-.176-.733-.474-.958-.297-.225-.682-.291-1.036-.18l-11.666 3.664c-.49.154-.824.615-.824 1.138v5.954c0 .378.176.733.474.958.297.225.682.291 1.036.18l11.666-3.664c.49-.154.824-.615.824-1.138zm-2.333-.88l-9.334 2.932v-3.463l9.334-2.93v3.462z" transform="translate(-230 -423) translate(230 140) translate(0 283)"/>
                </g>
            </g>
        </g>
    </g>
</svg>
