<svg xmlns="http://www.w3.org/2000/svg" width="50" height="30" viewBox="0 0 50 30">
    <g fill="none" fill-rule="evenodd">
        <g fill-rule="nonzero">
            <g>
                <g>
                    <path fill="#FFB600" d="M50 15c0 8.254-6.667 15-15 15-8.254 0-15-6.746-15-15S26.667 0 34.92 0C43.334 0 50 6.746 50 15z" transform="translate(-1005 -35) translate(230 18) translate(775 17)"/>
                    <path fill="#F7981D" d="M35 0c8.254 0 15 6.746 15 15s-6.667 15-15 15c-8.254 0-15-6.746-15-15" transform="translate(-1005 -35) translate(230 18) translate(775 17)"/>
                    <path fill="#FF8500" d="M35 0c8.254 0 15 6.746 15 15s-6.667 15-15 15" transform="translate(-1005 -35) translate(230 18) translate(775 17)"/>
                    <path fill="#FF5050" d="M14.88 0C6.685.08 0 6.746 0 15s6.684 15 15.04 15c3.899 0 7.4-1.508 10.106-3.889.557-.476 1.034-1.032 1.512-1.587h-3.104c-.398-.476-.795-1.032-1.114-1.508h5.332c.318-.476.636-1.032.875-1.587h-7.082c-.239-.477-.477-1.032-.637-1.588h8.276c.478-1.508.796-3.095.796-4.762 0-1.11-.16-2.142-.318-3.174H20.45c.08-.556.239-1.032.398-1.588h8.276c-.16-.555-.398-1.11-.637-1.587h-7.003c.24-.555.557-1.032.876-1.587h5.331c-.318-.556-.716-1.111-1.193-1.587h-2.945c.478-.556.955-1.032 1.512-1.508C22.44 1.588 18.86.158 14.96.158c0-.158 0-.158-.08-.158z" transform="translate(-1005 -35) translate(230 18) translate(775 17)"/>
                    <path fill="#E52836" d="M0 14.92C0 23.218 6.684 30 15.04 30c3.899 0 7.4-1.516 10.106-3.91.557-.478 1.034-1.037 1.512-1.595h-3.104c-.398-.479-.795-1.038-1.114-1.516h5.332c.318-.479.636-1.038.875-1.596h-7.082c-.239-.479-.477-1.037-.637-1.596h8.276C29.682 18.271 30 16.676 30 15c0-1.117-.16-2.154-.318-3.191H20.45c.08-.559.239-1.038.398-1.596h8.276c-.16-.559-.398-1.117-.637-1.596h-7.003c.24-.558.557-1.037.876-1.596h5.331c-.318-.558-.716-1.117-1.193-1.595h-2.945c.478-.559.955-1.038 1.512-1.516C22.44 1.436 18.86 0 14.96 0h-.08" transform="translate(-1005 -35) translate(230 18) translate(775 17)"/>
                    <path fill="#CB2026" d="M15.158 30c3.868 0 7.342-1.516 10.026-3.91.553-.478 1.027-1.037 1.5-1.595h-3.079c-.394-.479-.79-1.038-1.105-1.516h5.29c.315-.479.631-1.038.868-1.596h-7.026c-.237-.479-.474-1.037-.632-1.596h8.21c.474-1.516.79-3.111.79-4.787 0-1.117-.158-2.154-.316-3.191h-9.158c.08-.559.237-1.038.395-1.596h8.21c-.157-.559-.394-1.117-.631-1.596h-6.947c.236-.558.552-1.037.868-1.596h5.29c-.316-.558-.711-1.117-1.185-1.595h-2.92c.473-.559.947-1.038 1.5-1.516C22.5 1.436 18.946 0 15.078 0H15" transform="translate(-1005 -35) translate(230 18) translate(775 17)"/>
                    <g fill="#FFF">
                        <path d="M18.84 7.743l.236-1.343c-.079 0-.237.079-.394.079-.553 0-.632-.316-.553-.474l.474-2.765h.868l.237-1.502h-.79l.158-.948h-1.58s-.947 5.215-.947 5.847c0 .948.553 1.343 1.264 1.343.474 0 .869-.158 1.026-.237zM19.392 5.215c0 2.212 1.501 2.765 2.765 2.765 1.185 0 1.659-.237 1.659-.237l.316-1.501s-.869.395-1.659.395c-1.738 0-1.422-1.264-1.422-1.264h3.239s.237-1.027.237-1.422c0-1.028-.553-2.292-2.29-2.292-1.66-.158-2.845 1.58-2.845 3.556zm2.765-2.292c.87 0 .711 1.028.711 1.107H21.13c0-.08.158-1.107 1.027-1.107zM32.19 7.743l.315-1.738s-.79.395-1.343.395c-1.106 0-1.58-.87-1.58-1.817 0-1.897.948-2.924 2.054-2.924.79 0 1.422.474 1.422.474l.237-1.659S32.347.08 31.478.08c-1.817 0-3.633 1.58-3.633 4.583 0 1.975.947 3.318 2.843 3.318.632 0 1.501-.237 1.501-.237zM10.15 1.501c-1.105 0-1.895.316-1.895.316L8.018 3.16s.71-.316 1.737-.316c.553 0 1.027.08 1.027.554 0 .316-.079.395-.079.395h-.71c-1.343 0-2.844.553-2.844 2.37 0 1.422.948 1.738 1.5 1.738 1.106 0 1.58-.71 1.66-.71l-.08.631h1.422l.632-4.345c0-1.897-1.58-1.976-2.133-1.976zm.316 3.556c0 .237-.158 1.501-1.105 1.501-.474 0-.632-.395-.632-.632 0-.395.237-.948 1.421-.948.237.079.316.079.316.079zM13.784 7.901c.395 0 2.37.08 2.37-2.054 0-1.975-1.896-1.58-1.896-2.37 0-.396.316-.554.869-.554.237 0 1.106.08 1.106.08l.237-1.423s-.553-.158-1.501-.158c-1.185 0-2.37.474-2.37 2.055 0 1.817 1.975 1.659 1.975 2.37 0 .474-.553.553-.948.553-.71 0-1.422-.237-1.422-.237l-.237 1.422c.08.158.474.316 1.817.316zM45.302.237l-.316 2.133s-.632-.79-1.501-.79c-1.422 0-2.686 1.739-2.686 3.793 0 1.264.632 2.607 1.975 2.607.948 0 1.5-.632 1.5-.632l-.078.553h1.58L46.96.316 45.3.237zm-.711 4.188c0 .869-.395 1.975-1.264 1.975-.553 0-.869-.474-.869-1.264 0-1.264.553-2.055 1.264-2.055.553 0 .869.396.869 1.344zM1.54 7.822L2.488 2.133 2.646 7.822 3.752 7.822 5.806 2.133 4.937 7.822 6.596 7.822 7.86.237 5.253.237 3.673 4.899 3.594.237 1.303.237.039 7.822zM26.028 7.822c.474-2.607.553-4.74 1.659-4.345.158-1.028.395-1.423.552-1.818h-.315c-.711 0-1.264.948-1.264.948l.158-.869h-1.501L24.29 7.901h1.738v-.079zM35.823 1.501c-1.106 0-1.896.316-1.896.316L33.69 3.16s.71-.316 1.738-.316c.553 0 1.027.08 1.027.554 0 .316-.08.395-.08.395h-.71c-1.343 0-2.844.553-2.844 2.37 0 1.422.948 1.738 1.5 1.738 1.107 0 1.58-.71 1.66-.71l-.08.631h1.423l.631-4.345c.08-1.897-1.58-1.976-2.132-1.976zm.395 3.556c0 .237-.158 1.501-1.106 1.501-.474 0-.632-.395-.632-.632 0-.395.237-.948 1.422-.948.237.079.237.079.316.079zM39.298 7.822c.474-2.607.553-4.74 1.66-4.345.157-1.028.394-1.423.552-1.818h-.316c-.71 0-1.264.948-1.264.948l.158-.869h-1.5L37.56 7.901h1.737v-.079z" transform="translate(-1005 -35) translate(230 18) translate(775 17) translate(2 11)"/>
                    </g>
                    <g fill="#DCE5E5">
                        <path d="M16.39 6.637c0 .948.554 1.343 1.265 1.343.553 0 1.027-.158 1.184-.237l.237-1.343c-.079 0-.237.079-.394.079-.553 0-.632-.316-.553-.474l.474-2.765h.868l.237-1.502h-.79l.158-.948M20.182 5.215c0 2.212.711 2.765 1.975 2.765 1.185 0 1.659-.237 1.659-.237l.316-1.501s-.869.395-1.659.395c-1.738 0-1.422-1.264-1.422-1.264h3.239s.237-1.027.237-1.422c0-1.028-.553-2.292-2.29-2.292-1.66-.158-2.055 1.58-2.055 3.556zm1.975-2.292c.87 0 1.027 1.028 1.027 1.107H21.13c0-.08.158-1.107 1.027-1.107zM32.19 7.743l.315-1.738s-.79.395-1.343.395c-1.106 0-1.58-.87-1.58-1.817 0-1.897.948-2.924 2.054-2.924.79 0 1.422.474 1.422.474l.237-1.659S32.347.08 31.478.08c-1.817 0-2.844 1.58-2.844 4.583 0 1.975.158 3.318 2.054 3.318.632 0 1.501-.237 1.501-.237zM8.018 3.24s.71-.317 1.737-.317c.553 0 1.027.08 1.027.554 0 .316-.079.395-.079.395h-.71c-1.343 0-2.844.553-2.844 2.37 0 1.422.948 1.738 1.5 1.738 1.106 0 1.58-.71 1.66-.71l-.08.631h1.422l.632-4.345c0-1.818-1.58-1.897-2.212-1.897m1.185 3.398c0 .237-.948 1.501-1.895 1.501-.474 0-.632-.395-.632-.632 0-.395.237-.948 1.421-.948.237.079 1.106.079 1.106.079zM12.046 7.743s.474.158 1.817.158c.395 0 2.37.08 2.37-2.054 0-1.975-1.896-1.58-1.896-2.37 0-.396.316-.554.869-.554.237 0 1.106.08 1.106.08l.237-1.423s-.553-.158-1.501-.158c-1.185 0-1.58.474-1.58 2.055 0 1.817 1.185 1.659 1.185 2.37 0 .474-.553.553-.948.553M44.986 2.37s-.632-.79-1.501-.79c-1.422 0-1.896 1.739-1.896 3.793 0 1.264-.158 2.607 1.185 2.607.948 0 1.5-.632 1.5-.632l-.078.553h1.58L46.96.316m-2.054 4.109c0 .869-.711 1.975-1.58 1.975-.553 0-.869-.474-.869-1.264 0-1.264.553-2.055 1.264-2.055.553 0 1.185.396 1.185 1.344zM1.54 7.822L2.488 2.133 2.646 7.822 3.752 7.822 5.806 2.133 4.937 7.822 6.596 7.822 7.86.237 5.885.237 3.673 4.899 3.594.237 2.725.237.039 7.822zM24.369 7.822h1.659c.474-2.607.553-4.74 1.659-4.345.158-1.028.395-1.423.552-1.818h-.315c-.711 0-1.264.948-1.264.948l.158-.869M33.69 3.24s.71-.317 1.738-.317c.553 0 1.027.08 1.027.554 0 .316-.08.395-.08.395h-.71c-1.343 0-2.844.553-2.844 2.37 0 1.422.948 1.738 1.5 1.738 1.107 0 1.58-.71 1.66-.71l-.08.631h1.423l.631-4.345c0-1.818-1.58-1.897-2.211-1.897m1.185 3.398c0 .237-.948 1.501-1.896 1.501-.474 0-.632-.395-.632-.632 0-.395.237-.948 1.422-.948.316.079 1.106.079 1.106.079zM37.64 7.822h1.658c.474-2.607.553-4.74 1.66-4.345.157-1.028.394-1.423.552-1.818h-.316c-.71 0-1.264.948-1.264.948l.158-.869" transform="translate(-1005 -35) translate(230 18) translate(775 17) translate(2 11)"/>
                    </g>
                </g>
            </g>
        </g>
    </g>
</svg>
