<svg xmlns="http://www.w3.org/2000/svg" width="20" height="20" viewBox="0 0 20 20">
    <g fill="none" fill-rule="evenodd">
        <g fill="#FFF" fill-rule="nonzero">
            <g>
                <g>
                    <g>
                        <path d="M9.38 0c2.498 0 4.523 2.025 4.523 4.524 0 2.498-2.025 4.524-4.524 4.524-2.498 0-4.523-2.026-4.523-4.524C4.858 2.026 6.882.002 9.379 0zM.332 19.905c.083-2.22 1.015-4.246 2.647-5.745 1.686-1.547 3.957-2.398 6.4-2.398 2.444 0 4.715.85 6.4 2.398 1.633 1.5 2.564 3.526 2.648 5.745H.332z" transform="translate(-1056 -30) translate(250 21) translate(789 9) translate(17.633)"/>
                    </g>
                </g>
            </g>
        </g>
    </g>
</svg>
