<svg xmlns="http://www.w3.org/2000/svg" width="64" height="71" viewBox="0 0 64 71">
    <g fill="none" fill-rule="evenodd">
        <g fill="#000" fill-rule="nonzero">
            <g>
                <g>
                    <path d="M29.591 64.531h-1.705l1.374-4.22c.217-.66.327-1.352.327-2.048v-7.671c.005-1.717-.664-3.364-1.858-4.574l-8.492-8.664c-1.575-1.612-4.132-1.616-5.712-.01-.586.597-.978 1.362-1.124 2.193L8.455 36.01V20.327c0-2.382-1.893-4.313-4.228-4.313-2.334 0-4.227 1.93-4.227 4.313v17.88c0 1.198.326 2.372.942 3.39l6.885 11.418c.411.68.629 1.465.628 2.264v9.252H7.398c-.584 0-1.057.483-1.057 1.078v4.313c0 .595.473 1.078 1.057 1.078H29.59c.584 0 1.057-.483 1.057-1.078v-4.313c0-.595-.473-1.078-1.057-1.078zM2.741 40.468c-.41-.68-.628-1.462-.627-2.26V20.327c0-1.191.946-2.157 2.113-2.157 1.168 0 2.114.966 2.114 2.157v16.172c0 .31.131.607.361.81l8.425 7.523L20.39 50.2l1.495-1.524-6.87-7.008c-.738-.787-.712-2.035.06-2.788.747-.731 1.926-.731 2.673 0l8.492 8.664c.796.806 1.242 1.904 1.238 3.049v7.673c.002.463-.07.924-.21 1.364L25.66 64.53H10.568v-9.256c0-1.197-.325-2.37-.941-3.39L2.74 40.468zm25.793 28.376H8.454v-2.157h20.08v2.157zM47.594 0H17.307c-.597 0-1.082.474-1.082 1.058V23.28c0 .584.485 1.058 1.082 1.058h30.287c.598 0 1.082-.474 1.082-1.058V1.058C48.676.474 48.192 0 47.594 0zm-19.47 2.116h8.653V6.35h-8.653V2.116zm18.389 20.106H18.389V2.116h7.572v5.291c0 .585.484 1.058 1.081 1.058H37.86c.598 0 1.082-.473 1.082-1.058v-5.29h7.572v20.105zM59.773 16.014c-2.335 0-4.228 1.93-4.228 4.313V36.01l-3.95 3.527c-.393-2.24-2.492-3.731-4.688-3.33-.814.149-1.564.55-2.149 1.147l-8.491 8.663c-1.194 1.21-1.863 2.858-1.858 4.575v7.673c0 .696.11 1.388.326 2.048l1.379 4.218h-1.705c-.584 0-1.057.483-1.057 1.078v4.313c0 .595.473 1.078 1.057 1.078h22.193c.584 0 1.057-.483 1.057-1.078v-4.313c0-.595-.473-1.078-1.057-1.078h-1.057v-9.256c0-.8.217-1.584.628-2.264l6.885-11.418c.616-1.017.942-2.19.942-3.385V20.327c0-2.382-1.893-4.313-4.227-4.313zm-4.228 52.83h-20.08v-2.157h20.08v2.157zm6.341-30.636c.001.8-.216 1.584-.627 2.264L54.373 51.89c-.615 1.017-.941 2.19-.941 3.385v9.256H38.34l-1.6-4.902c-.143-.44-.214-.901-.212-1.364v-7.673c-.004-1.145.443-2.243 1.238-3.05l8.492-8.663c.771-.754 1.995-.727 2.733.06.716.762.716 1.965 0 2.728l-6.87 7.008 1.495 1.524 5.262-5.367 8.425-7.522c.228-.205.358-.5.356-.811V20.327c0-1.191.946-2.157 2.114-2.157 1.167 0 2.113.966 2.113 2.157v17.88z" transform="translate(-230 -542) translate(230 140) translate(0 402)"/>
                </g>
            </g>
        </g>
    </g>
</svg>
