<svg xmlns="http://www.w3.org/2000/svg" width="20" height="21" viewBox="0 0 20 21">
    <g fill="none" fill-rule="evenodd">
        <g fill="#FFF" fill-rule="nonzero">
            <g>
                <g>
                    <g>
                        <path d="M0 8.333L1.967 19c.186 1.053 1.094 1.823 2.16 1.833h11.746c1.066-.01 1.974-.78 2.16-1.833L20 8.333H0zm6.399 4.778c0 .307-.248.556-.554.556-.306 0-.554-.249-.554-.556v-1.667c0-.306.248-.555.554-.555.306 0 .554.249.554.555v1.667zm8.31 0c0 .307-.248.556-.554.556-.306 0-.554-.249-.554-.556v-1.667c0-.306.248-.555.554-.555.306 0 .554.249.554.555v1.667zM6.176 4.919c0-2.077 1.712-3.762 3.824-3.762s3.824 1.685 3.824 3.762v3.414H15V4.92C15 2.202 12.761 0 10 0S5 2.202 5 4.919v3.414h1.176V4.92z" transform="translate(-1152 -29) translate(250 21) translate(884 8) translate(18)"/>
                    </g>
                </g>
            </g>
        </g>
    </g>
</svg>
