<svg xmlns="http://www.w3.org/2000/svg" width="70" height="71" viewBox="0 0 70 71">
    <g fill="none" fill-rule="evenodd">
        <g fill="#000" fill-rule="nonzero">
            <g>
                <g>
                    <g>
                        <path d="M26.25 23.983c0 1.937.908 5.6 4.343 5.6h8.814c3.435 0 4.343-3.663 4.343-5.6 0-3.663-2.141-6.821-5.202-8.223 1.16-1.028 1.896-2.548 1.896-4.243 0-3.088-2.442-5.6-5.444-5.6s-5.445 2.512-5.445 5.6c0 1.695.737 3.215 1.897 4.243-3.061 1.402-5.202 4.56-5.202 8.223zM35 17.117c.583 0 1.148.078 1.687.223L35 19.075l-1.687-1.735c.54-.145 1.104-.223 1.687-.223zm-3.37-5.6c0-1.911 1.512-3.467 3.37-3.467s3.37 1.556 3.37 3.467-1.512 3.466-3.37 3.466-3.37-1.554-3.37-3.466zm-.339 6.76L35 22.093l3.709-3.815c1.787 1.234 2.967 3.33 2.967 5.703 0 .01-.01.998-.363 1.937-.517 1.374-1.335 1.533-1.906 1.533h-8.814c-.571 0-1.39-.16-1.906-1.533-.353-.939-.363-1.927-.363-1.934 0-2.375 1.18-4.472 2.967-5.705zM7.778 60.47c0 1.936.907 5.6 4.343 5.6h8.814c3.435 0 4.343-3.663 4.343-5.6 0-3.664-2.14-6.822-5.202-8.225 1.16-1.028 1.896-2.548 1.896-4.242 0-3.088-2.442-5.6-5.444-5.6s-5.445 2.512-5.445 5.6c0 1.694.737 3.214 1.897 4.242-3.062 1.403-5.202 4.56-5.202 8.225zm8.75-6.867c.582 0 1.147.078 1.687.223l-1.687 1.735-1.687-1.735c.54-.146 1.104-.223 1.687-.223zm-3.37-5.6c0-1.912 1.512-3.466 3.37-3.466s3.37 1.554 3.37 3.466c0 1.911-1.512 3.466-3.37 3.466s-3.37-1.555-3.37-3.466zm-.339 6.76l3.709 3.815 3.708-3.814c1.788 1.233 2.967 3.329 2.967 5.702 0 .01-.01.999-.363 1.938-.516 1.373-1.334 1.532-1.905 1.532h-8.814c-.571 0-1.39-.159-1.906-1.532-.353-.94-.363-1.928-.363-1.934 0-2.376 1.18-4.473 2.967-5.706zM44.722 60.47c0 1.936.908 5.6 4.343 5.6h8.814c3.436 0 4.343-3.663 4.343-5.6 0-3.664-2.14-6.822-5.202-8.225 1.16-1.028 1.896-2.548 1.896-4.242 0-3.088-2.442-5.6-5.444-5.6s-5.444 2.512-5.444 5.6c0 1.694.736 3.214 1.896 4.242-3.061 1.403-5.202 4.56-5.202 8.225zm8.75-6.867c.583 0 1.148.078 1.687.223l-1.687 1.735-1.687-1.735c.54-.146 1.105-.223 1.687-.223zm-3.37-5.6c0-1.912 1.512-3.466 3.37-3.466s3.37 1.554 3.37 3.466c0 1.911-1.512 3.466-3.37 3.466s-3.37-1.555-3.37-3.466zm-.338 6.76l3.708 3.815 3.709-3.815c1.787 1.234 2.966 3.33 2.966 5.703 0 .01-.01.999-.362 1.937-.516 1.374-1.335 1.533-1.906 1.533h-8.814c-.57 0-1.39-.159-1.905-1.533-.354-.938-.363-1.927-.363-1.933 0-2.376 1.179-4.473 2.967-5.706z" transform="translate(-230 -662) translate(230 140) translate(0 521) translate(0 1)"/>
                        <path d="M53.628 37.788c-4.849 0-9.21 2.15-12.21 5.557H36.03v-5.717c9.759-.545 17.532-8.768 17.532-18.799C53.563 8.447 45.236 0 35 0c-4.207 0-8.328 1.467-11.603 4.13l1.29 1.633c2.954-2.401 6.52-3.67 10.313-3.67 9.098 0 16.5 7.507 16.5 16.736 0 9.228-7.402 16.736-16.5 16.736-9.099 0-16.5-7.508-16.5-16.736 0-4.082 1.464-8.013 4.124-11.07l-1.547-1.385c-2.993 3.44-4.64 7.863-4.64 12.454 0 10.031 7.773 18.255 17.531 18.8v5.717h-5.385c-3-3.408-7.363-5.557-12.21-5.557-3.37 0-6.605 1.03-9.357 2.977l1.18 1.716c2.405-1.701 5.232-2.6 8.176-2.6 7.89 0 14.31 6.51 14.31 14.513 0 8.002-6.42 14.513-14.31 14.513-7.89 0-14.309-6.51-14.309-14.513 0-3.822 1.452-7.429 4.088-10.157l-1.473-1.465C1.66 45.894 0 50.022 0 54.394 0 63.551 7.344 71 16.372 71c9.028 0 16.372-7.45 16.372-16.606 0-3.296-.952-6.37-2.59-8.957h9.693c-1.64 2.586-2.591 5.66-2.591 8.957C37.256 63.551 44.6 71 53.628 71c4.31 0 8.38-1.685 11.458-4.745l-1.444-1.494c-2.69 2.674-6.247 4.146-10.014 4.146-7.89 0-14.31-6.51-14.31-14.513s6.42-14.513 14.31-14.513c7.89 0 14.309 6.51 14.309 14.513 0 2.986-.887 5.854-2.565 8.293l1.693 1.197C68.985 61.09 70 57.81 70 54.394c0-9.157-7.344-16.606-16.372-16.606z" transform="translate(-230 -662) translate(230 140) translate(0 521) translate(0 1)"/>
                    </g>
                </g>
            </g>
        </g>
    </g>
</svg>
