<svg xmlns="http://www.w3.org/2000/svg" width="31" height="30" viewBox="0 0 31 30">
    <g fill="none" fill-rule="evenodd">
        <g fill-rule="nonzero">
            <g>
                <g transform="translate(-964 -35) translate(230 18) translate(734.5 17)">
                    <circle cx="15" cy="14.835" r="14.835" fill="#F3F2F2"/>
                    <g fill="#293688">
                        <path d="M6.056 6.841L7.183.148 9.007.148 7.88 6.841zM14.373.321c-.361-.135-.928-.28-1.635-.28-1.802 0-3.072.907-3.083 2.208-.01.962.906 1.498 1.599 1.819.71.327.948.537.945.83-.005.448-.567.653-1.092.653-.73 0-1.118-.101-1.717-.351l-.235-.107L8.9 6.592c.426.187 1.214.349 2.032.357 1.917 0 3.162-.897 3.176-2.287.007-.761-.479-1.34-1.531-1.818-.638-.31-1.028-.516-1.024-.83 0-.278.33-.576 1.045-.576.596-.009 1.028.121 1.365.257l.163.077.248-1.45zM17.483.148c-.437 0-.753.135-.945.57l-2.703 6.124h1.93l.376-1.026h2.308l.214 1.026h1.717L18.878.149h-1.395zm-.83 4.329l.727-1.871c-.01.018.15-.387.242-.639l.124.577.422 1.933h-1.514zM2.73 4.736l-.16-.917C2.237 2.749 1.204 1.592.046 1.012l1.611 5.83H3.59L6.486.147H4.554L2.73 4.736z" transform="translate(5.11 10.668)"/>
                    </g>
                    <g fill="#F7981D">
                        <path d="M1.615.023v.108C3.888.684 5.467 2.083 6.09 3.69L5.435.594c-.11-.423-.442-.556-.836-.57H1.615zM13.187 18.669c5.645 0 10.749-3.24 13.187-7.978H0c2.438 4.738 7.542 7.978 13.187 7.978z" transform="translate(1.813 11.001)"/>
                    </g>
                    <path fill="#293688" d="M15 0C9.447 0 4.482 3.1 2.007 7.668h25.964C25.496 3.1 20.552 0 15 0z"/>
                </g>
            </g>
        </g>
    </g>
</svg>
