<svg xmlns="http://www.w3.org/2000/svg" width="20" height="20" viewBox="0 0 20 20">
    <g fill="none" fill-rule="evenodd">
        <g fill-rule="nonzero">
            <g>
                <g>
                    <g>
                        <path fill="#FFF" d="M0 5v10c0 2.761 2.239 5 5 5h10c2.761 0 5-2.239 5-5V5c0-2.761-2.239-5-5-5H5C2.239 0 0 2.239 0 5z" transform="translate(-649 -42) translate(250 21) translate(399 21)"/>
                        <path fill="#585858" d="M10.003 4C6.693 4 4 6.69 4 9.997c0 1.134.317 2.237.917 3.192l.143.227-.606 2.214 2.27-.596.22.13c.921.547 1.977.836 3.054.836H10c3.307 0 5.999-2.69 6-5.998 0-1.603-.623-3.11-1.756-4.243C13.112 4.625 11.605 4.001 10.003 4zm3.287 8.53c-.158.424-.916.811-1.28.864-.328.047-.742.066-1.196-.072-.276-.084-.63-.196-1.082-.383-1.904-.787-3.148-2.623-3.243-2.744-.095-.121-.775-.986-.775-1.88 0-.895.49-1.334.665-1.516.174-.182.38-.228.506-.228s.253.002.363.007c.117.005.274-.043.427.312.159.364.538 1.258.586 1.349.047.091.079.197.016.318-.064.122-.362.487-.475.622-.084.1-.194.189-.083.37.11.183.492.778 1.056 1.26.725.619 1.336.81 1.526.902.19.09.3.076.411-.046.11-.12.475-.53.601-.712.127-.182.253-.152.427-.091.174.06 1.107.5 1.297.591.19.091.316.137.364.212.047.076.047.44-.11.865z" transform="translate(-649 -42) translate(250 21) translate(399 21)"/>
                    </g>
                </g>
            </g>
        </g>
    </g>
</svg>
